/* XPM */
static char *_adb70d8919e472498741d2353353ddeow3V5kQ4GeDu3bV6[] = {
/* columns rows colors chars-per-pixel */
"64 64 256 2 ",
"   c #050500",
".  c #0C0400",
"X  c #020B00",
"o  c #0B0A00",
"O  c #140400",
"+  c #1B0300",
"@  c #130B00",
"#  c #1C0C00",
"$  c #031200",
"%  c #0B1300",
"&  c #091A00",
"*  c #1D1300",
"=  c #171800",
"-  c #230200",
";  c #230C00",
":  c #2A0800",
">  c #241300",
",  c #2B1400",
"<  c #231B00",
"1  c #2B1B00",
"2  c #331B00",
"3  c #381700",
"4  c #330D00",
"5  c #1A2500",
"6  c #2C2300",
"7  c #282700",
"8  c #332400",
"9  c #3B2300",
"0  c #342C00",
"q  c #3B2C00",
"w  c #333300",
"e  c #3A3800",
"r  c #2F3600",
"t  c #421F00",
"y  c #432500",
"u  c #472C00",
"i  c #443400",
"p  c #4B3400",
"a  c #4C3B00",
"s  c #433B01",
"d  c #5A3D00",
"f  c #533A01",
"g  c #643900",
"h  c #3D4200",
"j  c #474600",
"k  c #534300",
"l  c #594B00",
"z  c #574803",
"x  c #5C5502",
"c  c #554B14",
"v  c #644C00",
"b  c #674900",
"n  c #645400",
"m  c #6A5301",
"M  c #6A5B02",
"N  c #745D00",
"B  c #7A5C02",
"V  c #685A15",
"C  c #6B4D13",
"Z  c #686504",
"A  c #7C6200",
"S  c #7B6C01",
"D  c #756706",
"F  c #797601",
"G  c #786717",
"H  c #6D6E12",
"J  c #655329",
"K  c #7B6A33",
"L  c #71682D",
"P  c #5D5C12",
"I  c #746D41",
"U  c #845E01",
"Y  c #846C01",
"T  c #876602",
"R  c #8C7401",
"E  c #8B7B00",
"W  c #847804",
"Q  c #927B00",
"!  c #957703",
"~  c #897516",
"^  c #917833",
"/  c #938400",
"(  c #938A00",
")  c #9C8602",
"_  c #9E9400",
"`  c #9A9500",
"'  c #968815",
"]  c #919011",
"[  c #A48C01",
"{  c #A78908",
"}  c #AB9202",
"|  c #A79905",
" . c #B49C02",
".. c #B99804",
"X. c #A7961A",
"o. c #B69915",
"O. c #AB8D13",
"+. c #AEA905",
"@. c #BAA705",
"#. c #B9B309",
"$. c #B9A71B",
"%. c #BBB518",
"&. c #998B29",
"*. c #938D2E",
"=. c #A69624",
"-. c #B79A24",
";. c #A59A39",
":. c #A78A2E",
">. c #B9AA28",
",. c #BBB636",
"<. c #B2A92C",
"1. c #C6AA05",
"2. c #C9B705",
"3. c #D3BB02",
"4. c #D6B707",
"5. c #C4A919",
"6. c #C9B619",
"7. c #D4B818",
"8. c #D8A514",
"9. c #C19E2D",
"0. c #CAAA24",
"q. c #C9B627",
"w. c #D7BA27",
"e. c #C8AC38",
"r. c #CAB936",
"t. c #D6B836",
"y. c #E0BA0F",
"u. c #D8C706",
"i. c #D9D607",
"p. c #CDC316",
"a. c #D8C717",
"s. c #DDD313",
"d. c #CBC60B",
"f. c #EBCC01",
"g. c #E6CA08",
"h. c #F5CC06",
"j. c #E5D301",
"k. c #EBD502",
"l. c #EDDB01",
"z. c #EBD40C",
"x. c #ECDB0B",
"c. c #E5D808",
"v. c #F4D501",
"b. c #FDD401",
"n. c #F4DC02",
"m. c #FCDC02",
"M. c #F4D40B",
"N. c #FAD50B",
"B. c #F4DC0C",
"V. c #FCDC0C",
"C. c #E4CC13",
"Z. c #E4CC1C",
"A. c #E8C918",
"S. c #E3D313",
"D. c #EBD314",
"F. c #EBDB13",
"G. c #EBD51B",
"H. c #EDDB1B",
"J. c #E5D818",
"K. c #F3D513",
"L. c #FBD614",
"P. c #F4DC14",
"I. c #FDDC14",
"U. c #FDD51A",
"Y. c #F3DC1C",
"T. c #FBDD1C",
"R. c #F3D51C",
"E. c #F5CD19",
"W. c #E9E407",
"Q. c #F4E302",
"!. c #FCE302",
"~. c #FEEB03",
"^. c #F4E30C",
"/. c #FCE30C",
"(. c #FDEB0C",
"). c #F6E80A",
"_. c #FFF209",
"`. c #EDE617",
"'. c #F4E314",
"]. c #FCE314",
"[. c #FDEA14",
"{. c #F4E31B",
"}. c #FDE41C",
"|. c #FEEA1B",
" X c #F4E91A",
".X c #FEF313",
"XX c #FFF41A",
"oX c #D9C729",
"OX c #DBC736",
"+X c #DBD539",
"@X c #D5CE2B",
"#X c #E4CC23",
"$X c #E6CA29",
"%X c #F5CE2A",
"&X c #ECD523",
"*X c #ECDB23",
"=X c #E8D62A",
"-X c #F5D424",
";X c #F3DC23",
":X c #FDDD24",
">X c #F3DB2B",
",X c #FBDD2C",
"<X c #F5D32C",
"1X c #E5C938",
"2X c #EAD838",
"3X c #F3DB33",
"4X c #FDDC34",
"5X c #F7D738",
"6X c #ECE526",
"7X c #F4E223",
"8X c #FCE423",
"9X c #FEEB23",
"0X c #F4E42B",
"qX c #FDE32C",
"wX c #FEEB2C",
"eX c #F4EB27",
"rX c #FFF224",
"tX c #FFF32C",
"yX c #FFF826",
"uX c #EBE835",
"iX c #FDE434",
"pX c #FFEB33",
"aX c #FEE43B",
"sX c #FFEB3B",
"dX c #F4E537",
"fX c #FDF439",
"gX c #EFF03D",
"hX c #DFE20B",
"jX c #98934C",
"kX c #AC9946",
"lX c #B7A648",
"zX c #B3B253",
"xX c #BBB26D",
"cX c #C7B747",
"vX c #CFB952",
"bX c #CBB86A",
"nX c #D8C747",
"mX c #D1C850",
"MX c #E7D747",
"NX c #F7D845",
"BX c #EADB59",
"VX c #F3D856",
"CX c #E9CB4D",
"ZX c #FAE746",
"AX c #FCF34A",
"SX c #F8E858",
"DX c #FEF655",
"FX c #E7E44C",
"GX c #D9C969",
"HX c #D3CD6A",
"JX c #E7D667",
"KX c #EDD76F",
"LX c #F8EA67",
"PX c #F5ED6B",
"IX c #DFE154",
"UX c #E9E087",
/* pixels */
"$ j / T U.L.N.iXR / z 7 o < l / E &X).l.l.W _ a O O 7 Z E ) XXb.V.g.A W r & $ r S Y ..sXM.V.3.S F 7 + + y ! R 3.(.j..X/ ( Z > O ",
"F FX+X$XU.N.N.U.Z.@XSX] @ ' BX@X2.pXn.(./.3.a.LXG O <.FXoXa.f.b.b.M.7.FXIXh 7 <.VX1X%X:XI.9Xu.a.AXnX, 3 KXSX..R.j.Q.Q.x.2.VXlXO ",
"&XG.7XK.K.8XL.9X].x.wX>X6.3XC.D.{.[./././.yXf.qXMXw.S.^.F.rXv..X[.V.|.z.F.s.2.fXD.I.9XI.T.z.rX}.z.Y.Z.7.:XD.fXqX|./.n.B.wX>XaX6.",
"T.T.qXa.7.&Xa.2.3.Y.I.B.T.I.}.9Xu.2.>XZ.1.4.I.L.E.8XXXn.iX@.Z.3.C.1.C.8XV.m./.v.8X8X .C.$X2X@.&X].m.m./.!.'.#X .2Xa.Z.2.-X:XM./.",
"v.iXvX+ mX( Z PX1 { sXv.v.V.:X[ 0 GXm kXGXy 0.4XL.V.M.iX! y UXk nX=.3 CXU./.h.L.NXb n PX7 KXV a 4X/.!.j.Q.eX8 ;.bXq KXf B ZX].n.",
"V.-X9 # e 5 & h + - 7.9Xv.|.#X, O c # + p + 3 5X}.v.}.1.+ , c   w 6 4 g ,Xb.m.qX! + 0 e   s 8 ; ! ].j._.W.x * 1 8 # a , , [ [.n.",
"!.3.p 0 X & X o 8 9 ..v./.{.} 8 q . @ O O a a 1.m.!.}.R p O @ o     p y N.!.m.:Xb i     =   o i m Y.].W.6Xe j @ . # O O p R {.Q.",
"!.g.$.mXzX= o jXvXt.3.[./.{.@X>.vXlXO # lXOX+.F.(.k.|.1.r.GX*.  e zXvX5.[.m.V.qX0.cXmXx o V mXoX@.7X{.S.6X#.r.vXa O ~ JXe.5.{.l.",
"V.|.D.H.dX| Y VXNX#XT.V.B.F.0XJ.Y.aXR ) uX`.i..XQ.n.V.I.D.3X2XS +.AXa.7X/.v.}.D.;XS.eXp.N t.iXz.P.{.z.9XH.G.;XaX5.A =X>X$XaX).Q.",
":X3.qX}.l..XtXR.%XaXC.G.0X*X#X6XN.].qX7X`.W.`.u.&XAXg.M.8X}.P.}.'.P.qX&Xu.wX#X=XG.'.Q.l.:XiXL.}.;XZ.3X3X%X,XT.h.I.9X[.P.aXoXs.`.",
"MXo.T NXv.v.m.M.NX} Y SXS BXS X.qXf.].'.J.uXF X.KXN LXB 1.,Xn.!.n.8XCXA r.,.E BXM OXG.I.M.}.A.<XN nX' e.t.U 4X:X/.m.k.{.q.m SX( ",
"~ Y - { 8X!.v.9X0.; a &.@ *.z O 1.L./.'.6X| @ G K O lX2 : $X].!.Q.8XA + *.l 0 ;.+ y 3XwXk.8XAXu O kX9 v ^ - U 4XB.n.].Z.> 1 ;.< ",
". O ; 9 G.[.n.8Xk , O . @ o @ O l ;X'.'.2Xq * . . # # # + Q {.n.Q.d.> O O @ o @ O # @.Y.H.;X5.+ @ o O O ; - : q.>XY.pXE O > . . ",
"1 V &.W 7Xx.l.8X/ &.G i . 0 Z =.Q pXk.x.dXR X.D 0 . j W =.[ tXj.).F.R &.C > O l &.{ @.7XF.pX} X.*.j @ # m X.R 1XsXG.pX_ X.~ a O ",
"W ZXdXC.^.Q.).'.8X2.DX>.; X.DXu.j..Xm.v.N.z.D.DXW > q.ZXoXZ.V.!.!.j.C.NXLXb u VXZX4.Y.].n.).[.u.uXSXi k sXeXu.Y.k.[.l.x.u.3XvX2 ",
"{.F.;X*X'.'.^.F.{.8XG.;X$X3Xz./.[.k.8X:X8XI.!.l.2X2X6XS.dXiXz.].!.n.|.z.-X,X<X<X<X;X8XP.[.x.rX`.F.H.=X*X).j.qX,X{.'.x..X/.{.5X1X",
"P.C.ZX5.1.a.d.p.[ ZX&XK.V.V.I.qX .w.t.nX$.@.9Xl.].I.B.:XMX{ +X2.J. .3.qXM.B.L.:X5X<X} s.p.+X( +X{.n.V.V.!.|.5.-.1X#.2X) ,X8XM.V.",
"].sX-.+ cX/ j BX1 A ZXP.!./.:X! - GXz G GX@ [ tXj.m.].5Xb 9 HXw $.| ; 6.}.n.V.R.NXy m BX* HXH * $X}.m.!.n.4.4 ^ vX0 KXi v oX].!.",
"Q.a.; ; > * @ < O + 5.eXx.qXOX+ O q . O 1 O > OX9Xn.;Xo.+ # 0   * O ; 2 5X}.B.aXT + ; # o < # # N 5XR.Y.iXp + , O o < O + O.wXn.",
"_.s.f z o @ @ . c k  . XS.*X| l z o # O ; m d 0.{.Q.pXW n 1   o # # C m 3Xx.^.0Xm V 1 O O . 1 m A aXG.*X=Xn l > O @ O u m R 8Xl.",
"l.j.3.MXBX1 O bXnXw.c..X^. XJ.2.FXr.; 9 OX$Xw.,XQ.Q.'.J.p.SX&.# a KXnX5.z.l.Q._.u.p.SXW # A BX1X1.].P.F.eXd.@XMXl # ' VXq.Z.(.n.",
"~.Q.^.D.dX6.o.MXaXS.l.l. Xx.7XJ.i.fX} o.iXU.%X-X/.!.'.F.i.*XNX} 7.dX2X>XrX_.l.Q.'.F.0XoX) NXiXg.[.V.wX*XJ.s.W.eXnX! 5X,X,XC.'.).",
"^.2.pX-XR.pXT.T.Y.K.u.H.;X=X@.dX[.l.wXU.].U.SXt.&XH.a.#XpXD.}.M.[.f.dX=X1.j.[.u.C.iX;XwXT.M./.].g.A.#XNXoXfXj.Q.Y.U./.I.$X2XoX>X",
"2X .d 5XpXf.m./.8XE D MXn CX! B Y./.k.V.I.4Xg :.nXl LXl ) iX/.m.n.[.1Xf r.%.S SXp 5.4XI.m.m.B.3.f VXY =.mXq s.).m.m.m.L.o.f KXZ ",
"l V + U iXm.n.].| @ s L . V d - [ ;XB.].qXA + J c o L 8 + e.I.!.~.D.b + J 0 * K : - 1X8Xj.'.MX1 O K 1 q L O i iXv.!./.7.+ 1 K % ",
"= o 4 3 ,Xv.~.|.l 7 o   * O + 4 d fXx.x.iXa 1 .     o * ; B tXf.n.G.# 1   o @ O + 3 ..Y.).9X| @ * . . . O 2 2 7.].n.].Q 9 .   $ ",
"0 ] cXO.E.]./.B._ %.X.x O f :.t.} ].].B.{._ +.X.w   M ;.-.1.m.~.(.u.| <.] = o G cX{ 4.rXj.XX#.#.=.*.O O ' q.} g.N.|.K.@.%.=.Z X ",
"` AX$X$XpXM.M.].`.a.gX%.a -.LX#XT.].g.F.{.c.W.fX] z OXSXOXaXv.m.B.{.*X=XgXF Z MXVX$XK.k.B.{.J.s.ZXMXM S ZX;Xg.qXT.g.8XwX2.AX+Xx ",
"[.'.D.iXG.R.wXY.qX>XG.Y.P.8XD.;X:XC.pXqXC.{.Q.l.*X&XwXD.ZX5XS.].{.P.;XY.^.).].}.D.9Xk.B.9XS.iXH.{.z.;X8Xn.V.pX#XaX>X&X*XpX{.x.x.",
"!.B.aX} +.oX| 1XY NXqX/._.Q.{.dXE oX$.q.r.E F.^.V.].m.K.1XQ MX_ =X .} aXn.!.n.!.8X1.( 2X) MX! w.Y.[./.m.v.9X..O.nX| MXW #X,Xf.~.",
"m.qX! O ;.H e bX- b aXf.l.j.DXx @ bXe V xX+ Q iXN.m.v.>Xp > UX& *.*.+ -.-X].m.}.OX@ j xXo bXC - 7.}.m.k.tX@.+ ^ jX= HXe 1 CXqXb.",
"I.$X; # X X o . - - 1.|.n..X6.@ o   * . O + - Z.N.m./.[ + @   $ $ o O y 5XL.V.qXn o o     . + - b pXf.(.Y.i # . X X X = + { qXb.",
"T.y.N F r $ X w G U ..9Xv.].1.S F 7 O + y Y Y 3.[.l.(./ ( n < o $ h ' B %X8Xh.iXY W j 5   * k R Y G.[.Q.j.S ) a @ @ = x W ) rXb.",
"N.:X4.FXIXj 5 ,.VXw.E.L.V.rX3.oXAXMX, y LXSX@.T.v.(.Q.{.2.BXbXO F FXOX$X:Xh.L.U.Z.@XLX] @ ' SX+Xa.pXj.!.(.u.#XLXV # ,.SXoXu.f.m.",
"}.M.}.B.u.c.2.pXD.P.rXV.I.z.wX9Xg.R.Z.7.Y.g.sXqX]./.k.B.wX&XaX2.S.H.Y.K.N.V.}.9X/.j.'.H.2.3Xg.x.x.'./.n.n.[.g.iX1Xw.C.{.F.tXv._.",
"C.2.D.K.[.m.!.N.8X8X@.C.#X2X@.=X}././.[.(.'.#X .$Xa.Z.2.-X:XM././.P.pXa.3.H.u.2.3.]./.n.].I.].|.u.3.=XZ.3.C.:XU.M.}.].k.8X1.Z.3.",
"nXX.3 CXU.V.b.L.NXm n PX6 KXV p 3XI.!.j.j.*X1 ;.GXq PXf A aX/.m.N.4XvX+ mX] x PX2 O.ZXK.V.I.,X[ 6 GXm kXbX3 0.4XN./.M.aXY y UXx ",
"w w + g 4Xb.h.pX! + 0 e   s q # ! }.k..X`.x < 8 8 O a > ; [ ^.l.V.5X3 # h 5 5 e O - 7.wXv.9X$X, # c # + f + 3 5X].m.8X1.+ , c . ",
"% o i u f.~.m.:Xb a   o =   o i v -X{.F.6Xe j @ . @ @ O p Q '.~.!.u.y 0 % $ X   9 y ..v./.8X} q 8 O > O O q i 2.!.m.T.! p # o   ",
"e zXmX..|.v.V.:X5.cXHXx o x nXoX1.qX7XJ.*X#.r.vXa O ~ GX,.6.`.Q.!.f.6.mXzX=   jXvXt.3.!.^.Y.oX>.mXlXO # zXnX+.J.!.n.9X4.e.GX^ o ",
"#.dX#X&X[.n.}.K.{.s.6XoXN t.7Xk.B.{.z.9XD.D.H.sX6.A =X3XoX3X'.Q.n.[.z.G.eX| S NX5XZ.].!.B.F.eXS.R.iXR ) uX`.i..XQ.n.V.}.g.iX2XS ",
"_.l.pX#Xa.pX#X>XG.|.).x.,XiXV./.{.C.&X&X<XqXI.f.K.}.[.Y.ZXOXJ.`.H.3.qX}.n._.9XY.%XaXC.F.0X*X#X*XV.].qX*XW.W. Xi.G.sXA.g.9XB.].{.",
"Q.}.VXN r.,.E BXM 1X;XK.K.8Xh.Z.M nXO.e.e.B <XqXV.m.n.7Xe.m LXW nXo.T ZXV.v.m.N.NXO.Y SXS BXS X.qXf.T.'.W.eXF =.JXB KXB 1.:Xn.!.",
"Q.7XA + *.l 0 ;.+ 9 3XtXk.T.ZXu @ kX1 l :.- T ,XI.n.].#X; 1 kX* G G + { 9X!.v.rX0.; a *.@ *.z O 1.L.]. X6X| @ V K + kX9 - $XV.!.",
"^.u.; O . @ o @ # + @.7X{.;X5.+ o o # O + + - t.4XD.dXE O > . . . @ ; 2 D.~.l.8Xz , O o @ o @ @ v ;XP.F.=X0 * . . @ * O + R 8Xl.",
"^.*XW &.n * O k ' { 1.{.x.fX .X.*.j . O n =.R 1XsXC.0X| -.~ a O 1 D &.Y {.Q.l.8X/ =.G i o 0 Z X./ pXz.F.iXR =.G q o j ~ =.) tXj.",
"n.B.g.sXSXv u VXNX4.P.Q.l.).8X2.2XLXa k dX7X3.;Xz.(.l.).u.>Xt.2 S ZXdXs.^.Q.Q.'.8X2.DX>.> X.DXu.u.[.V.N.V.M.D.DXR 1 %.AXp.&XM./.",
"B.].].K.R.-X<X<X,X;X}.^.[.x.wX7XH.J.=X&X/.j.qX;X{.'.Q.(.l.].iX#XY.H.;X*X{.'.x.{.{.8XG.>X$X5XD.'.|.k.8X-XT.I./.B.3X$X0Xs.pXqXD.}.",
"x.@.2.,XT.I.M.U.,X%X} s.6.+X( MX7XB.V.n.!.|.0.-.2X#.@X/ >X8XN.I.I.C.NX$.#.a.d.p.| ZXG.I.N.V.V.wX .w.t.nX$.#.9Xl.].].B.8XNX{ @X6.",
"q.| ; t.Y.V.|.K.NXy m JX@ HXZ * #X]./.m.m.4.4 ^ cX0 JXa v #XI.!.V.sX>.+ cXW j JX, Y ZX}.!.!.U.T + GXz G HX@ _ tXk.!.I.<Xb 9 JXj ",
"# O ; 2 >X^.l.sXT + ; # o < @ # N 3XY.F.pXa + > @   6 O ; ! pXl.).a.+ # * * o * + + 5.;Xj.{.1X; O 0 . O 1 O > OX{.l.;X$.; # 0   ",
"O > C v pXl.l.0Xv V 2 O @ . 1 m A 4X*XJ.2Xx l > O # . i d Q 7XQ.Q.S.l c     @ O f f  .8X'.H.| k z   # O ; m d 0.}.^.pXS n 1 o o ",
"a JXnX7.k.n.~.).d.p.FX/ # A JX1X1.].}.J.tXd.@XMXk + =.VXoXa.[.l.Q.j.2.+XBX0 O vXCXoXz.!.x.'.H.d.FXr.; 9 OX$Xw.,X!.!.'.s.6.SX&.# ",
"oX3X=X*XXX_.n.Q. XF.{.u.) NXZXC.|.N.wXG.J.i.W.eXOX) 5XsX<XD.B.~.~.!. XJ.=X%.$.MX4Xg.m.n.rXF. Xi.i.fX} o.iXU.%X-Xn.~. XF.F.7XNX{ ",
"|.Y.dXZ.2.l.'.g.#XaX;X9XI.n./.}.g.A.#X2X@XdXj.Q.8XL.].N.<X1X=X*XP.1.pX&XG.fX{.K.T.K.u.z.&X3X1.sX Xl.wXU.].U.SXt.;X7Xa.a.wXK.}.I.",
"v.P.1Xf q.#.S SXf 9.4XL.n.!.B.3.f VXR =.mX9 J./.m.m.m.T.o.d JXn oX .b NXpXf.n.).7XQ N MXv BX! N {.).k.V.].4Xg :.nXn LXl [ iXV.b.",
"~.H.k + J s < K - - 1X,Xj.{.2X8 + K > q K + p 3XV.!.V.4.+ 9 I o j G + T 4X/.n.'.| O i K O V f - } 7XB.].qXA + J c @ L 8 + 9.].!.",
"j.D.+ 1   o   . + 3 ..;XP.wX+.@ * O O O O , 3 w.I.m.|.! 2 .   % @ O : t 4Xv.!.rXx 6 o . * O + 3 d fXx.k.iXa < . o   o * + ! |.f.",
"~.j.| <.*.= o ~ e.} 4.9Xx.9X+.#.<.*.O O ' q.} 4.I.|.K. .%.=.Z o 0 ' cXo.G.}.Q.^._ %.=.x O f :.q.} ].^.x.{.` +.X.0   x ;.e...].!.",
"n.].&X+XFXF M MXZXA.I.B.z.{.`.d.uXMXN Y ZXG.u.iX8Xg.T.8X2.DX+Xj ( DXOX$XsXK.x.'.`.d.ZXq.z -.SXa.T.].g.F. XW.hXfX] k nXSXw.aXf.!.",
"P.z.;X;X'.).^.P.z.fXz.z.fXG.;X{.F.z.7X8Xn.B.pX$XiXiX0X>XpXH.x.^./.}.&X3XG.Y.wXG.aXqXD.P.K.qXD.{.Y.C.pXiXS. XQ.l.0XZ.9XD.4XZXg.|.",
"2X .} iX/.!.n.n.qX@.( ZX/ MX) 7.{./.!.n.n.wXo.{ OX| MXS oX>Xj.~.!.M.ZX[ #.p.| MXR NX:X/.!.!.P.0XW oX$.q.r.E F.Q.m.[.m.K.NXA SX| ",
"*.*.+ -.-XV.n.;XnX* j zXo bXC - 7.|.!.l.9X .O jXjX& mX0 1 CXqXv.V.,X! O zXH w bX- b 4Xv.n.j.AXz @ xXe V xX+ Q iXM.v.m.iX9 > HX5 ",
"%   + y NXL.N.aXM   %     O + - b wXj.(.0Xi #   X X X = O ! iXN.N.%X,   $ X % . : - 8.].n.[.q.o o   =   . O + $XI.m./.[ + O X $ "
};
