/* XPM */
static char *_e9de1ee159c4e57a62777aeb98a36e6rYj2Dt3PyjBUh7Q6[] = {
/* columns rows colors chars-per-pixel */
"64 64 190 2 ",
"   c #000000",
".  c #0A0001",
"X  c #000802",
"o  c #02000A",
"O  c #080009",
"+  c #0E0C00",
"@  c #140000",
"#  c #1A0000",
"$  c #130A00",
"%  c #230100",
"&  c #2C0100",
"*  c #240C05",
"=  c #2A0901",
"-  c #330001",
";  c #3A0302",
":  c #300A05",
">  c #360D0A",
",  c #2D1207",
"<  c #3F100A",
"1  c #440000",
"2  c #4C0002",
"3  c #410A07",
"4  c #42070B",
"5  c #530001",
"6  c #5B0000",
"7  c #59070D",
"8  c #630000",
"9  c #6A0000",
"0  c #6D201A",
"q  c #701A23",
"w  c #7B3533",
"e  c #724041",
"r  c #910E16",
"t  c #8A171C",
"y  c #9D131B",
"u  c #931113",
"i  c #AB0E19",
"p  c #A11017",
"a  c #871C2C",
"s  c #931626",
"d  c #931E30",
"f  c #AD1D24",
"g  c #AE1029",
"h  c #B91D28",
"j  c #B91530",
"k  c #84222A",
"l  c #89252F",
"z  c #812932",
"x  c #8D2A37",
"c  c #9D2F3A",
"v  c #8A343B",
"b  c #873939",
"n  c #98363C",
"m  c #B6262F",
"M  c #AA2C35",
"N  c #B62B39",
"B  c #A73034",
"V  c #A6383C",
"C  c #BE323D",
"Z  c #89423E",
"A  c #973840",
"S  c #9A3C47",
"D  c #983746",
"F  c #A33444",
"G  c #AE3D4C",
"H  c #AD3340",
"J  c #B93443",
"K  c #C83B4B",
"L  c #8E4A4B",
"P  c #9C434B",
"I  c #97484D",
"U  c #9B494E",
"Y  c #9E5A4F",
"T  c #9B4E56",
"R  c #945355",
"E  c #9C5256",
"W  c #9D5A54",
"Q  c #A3434F",
"!  c #B1414F",
"~  c #AF4E57",
"^  c #A94753",
"/  c #B74552",
"(  c #B94A58",
")  c #A45255",
"_  c #AA535C",
"`  c #A75B5C",
"'  c #BA525C",
"]  c #B1515C",
"[  c #A4645C",
"{  c #AA6A5E",
"}  c #A85760",
"|  c #A75966",
" . c #AD5D63",
".. c #BC5C66",
"X. c #B75663",
"o. c #9C6565",
"O. c #9E766C",
"+. c #B66168",
"@. c #BF6571",
"#. c #DD4A5D",
"$. c #F1405D",
"%. c #CB5B62",
"&. c #C55E65",
"*. c #FE4564",
"=. c #DA656D",
"-. c #C27877",
";. c #D0797F",
":. c #DC717B",
">. c #E46169",
",. c #DE7C89",
"<. c #E37F8B",
"1. c #FF7588",
"2. c #AE8F8C",
"3. c #B78681",
"4. c #C08081",
"5. c #C78E8E",
"6. c #D08781",
"7. c #D38789",
"8. c #DB958C",
"9. c #C59894",
"0. c #DC9293",
"q. c #E48490",
"w. c #FF8293",
"e. c #FE8C92",
"r. c #F88C9C",
"t. c #E39C9C",
"y. c #EA9290",
"u. c #FE9697",
"i. c #F09896",
"p. c #F4969B",
"a. c #FE9099",
"s. c #FF9A9B",
"d. c #F7848B",
"f. c #CEA299",
"g. c #EBA69F",
"h. c #DD99A4",
"j. c #FE9BA4",
"k. c #FF9CAD",
"l. c #C7A9A7",
"z. c #CAA9A0",
"x. c #CEB0AE",
"c. c #DBB0AA",
"v. c #CCBBB1",
"b. c #E6A3A5",
"n. c #EEACAE",
"m. c #FFA2AF",
"M. c #F4AFAA",
"N. c #EDB3AF",
"B. c #E8B8B4",
"V. c #FFB9B3",
"C. c #F5BDBE",
"Z. c #F8ACB6",
"A. c #E7C1BD",
"S. c #F7C8BE",
"D. c #FFBEC3",
"F. c #FFBECA",
"G. c #FFC1C6",
"H. c #FFC7C8",
"J. c #FFCDCD",
"K. c #F6CBC8",
"L. c #FFD1CF",
"P. c #FFD9CE",
"I. c #F3D0CA",
"U. c #FFCED3",
"Y. c #FFC9D8",
"T. c #FDD4D4",
"R. c #FFD3DB",
"E. c #FEDDDB",
"W. c #FADDD5",
"Q. c #DEE2D4",
"!. c #FFE3D7",
"~. c #FFE3DC",
"^. c #FFE8DD",
"/. c #F4E6DB",
"(. c #FFF1DF",
"). c #FFD4E4",
"_. c #FFDBE3",
"`. c #FFDEEA",
"'. c #FFE4E4",
"]. c #FFE9E4",
"[. c #FFE3EC",
"{. c #FFEBEC",
"}. c #EBFDED",
"|. c #FFF1E6",
" X c #FFF3EB",
".X c #FFFBEE",
"XX c #FFEFF2",
"oX c #FFF3F1",
"OX c #F3FFF6",
"+X c #FEFDF3",
/* pixels */
"                                                                                                                                ",
"                                                                                                                                ",
"                                                                                                                                ",
"                                                                                                                                ",
"                                                                                                                                ",
"                                                                                                                                ",
"                                                                                                                                ",
"                                                                                                                                ",
"                                                                                                                                ",
"                                                                                                                                ",
"                                                                                                                                ",
"                                                                                                                                ",
"                                                                                                                                ",
"                                                                                                                                ",
"                                                                                                                                ",
"                                                                                                                                ",
"                                  X X     .         X X                             . .   X                                     ",
"                                    X   . .     o o X X                 X X   .     . .   X                                     ",
"                                        O .     o o X X   .             X X         . .                                         ",
"                                . .     o o   X o o     . . .           X X         .                                           ",
"                                . . .   o o     o o     . o . .         o o           .                                         ",
"                                  . .           o         . . .                                                                 ",
"                                        X X     X X   .             .                                                           ",
"                                        X     .     . .         . . . . . . .               . .                                 ",
"                                    .   . . $ . @ # @ # . . +   @ # @ @ @ # . + .     $ $ . @ .                                 ",
"                              . @ : * % 3 ; % & 7 1 ; % ; & % # & & & ; 4 & % % % = , @ % ; - - .                               ",
"                              @ 1 k E U M s T _ g j X.S s H _ E z v X.x a ! ^ ` ) U b ) n V t 2 @                               ",
"                              @ 5 / `._.#.J R.[.$.*.).`.N w.`._.F.,.`.r.d Y.[.U.`.'.y.~.j.>.C 6 #                               ",
"                              @ 5 n '.{.=.%.oX{.K 1.[.{./ w._.{.{.J.{.b.v [.J.].].~.8.~.s.M y 5 #                               ",
"                              @ 1 P oX Xi.6..X+X&.d.XXoX' e.{.o.T.oXoXL.R {.S.^.V.Z { ^.s.u f 8 #                               ",
"                              @ 1 U {.].P.S.}.+X[ V.{.{.;.p.{.e x.+X].T.5.{.9.|.M.0 Y ^.s.p h 8 #                               ",
"                              @ 1 P oX.X X(.OXOXO.~.T.oXt.0.{.9.oXE.I.{.N.{.3.|.'.J.8.~.e.f i 9 #                               ",
"                              @ 5 Q {.oX.X+XOX+X2.XXh.R.C.c.|..X X5.4.'.'.].o.{.{.~.g.~.s.y m 6 #                               ",
"                              @ 2 S {.W./.+XQ.+Xl.XX| Z.E.z..X!.|.Z ) {.'.H.R '.H.b W '.s.r N 2 @                               ",
"                              @ 2 S {.A.I.oXv.oXA.XXD._.'.B..Xf.{.-.v '.{.N.L {.t.w [ E.u.B t 5 @                               ",
"                              @ ; A '.b.n.U.9. XJ.{.`._.E.J.{.` T.D.k U.E.7.) _._.J.t.'.R.G.V 1 @                               ",
"                              @ 2 ( R.j.r.k.q.[.[.`.] <.[.[.R./ a.`.J m.`.:.! ).`._.p.E._._.%.1 @                               ",
"                              @ ; z +.P F G D @.}  .q v  .) ' F n ' c G &.l x ..] ..I  ...~ x 1 @                               ",
"                                # % = & ; 2 - & : # > & % > ; & & < 3 & ; - - ; - > % @ : & & @ .                               ",
"                                    . @ # % # @ @ . @ . . . # # @ . . * @ @ @ @ @ . . + .   .                                   ",
"                                        @ @ @ . . . . .     . .       . . . . . .                                               ",
"                                    X   . . .     . . .           X X     . .                 .                                 ",
"                                    o o             . .   o     X X X X   .         .       o o                                 ",
"                                .   o o             . .   o     o o X X             .   o o o o                                 ",
"                                .     o       X     . .   o       o X X   .                 o .                                 ",
"                                .                         o         X   . .     X           . .                                 ",
"                                        . .                             . .     X       X     .                                 ",
"                                        . .                             . .     X                                               ",
"                                                                                                                                ",
"                                                                                                                                ",
"                                                                                                                                ",
"                                                                                                                                ",
"                                                                                                                                ",
"                                                                                                                                ",
"                                                                                                                                ",
"                                                                                                                                ",
"                                                                                                                                ",
"                                                                                                                                ",
"                                                                                                                                ",
"                                                                                                                                ",
"                                                                                                                                ",
"                                                                                                                                ",
"                                                                                                                                ",
"                                                                                                                                "
};
