/* XPM */
static char *ce4cc2518f6f49d2a3880a4e96e13f34NR7Y50Bcu6DS3PfO[] = {
/* columns rows colors chars-per-pixel */
"64 64 33 1 ",
"  c None",
". c black",
"X c #010101",
"o c #020202",
"O c gray1",
"+ c #040404",
"@ c gray2",
"# c #060606",
"$ c #070707",
"% c gray3",
"& c #090909",
"* c gray4",
"= c #0B0B0B",
"- c #0C0C0C",
"; c gray5",
": c #0E0E0E",
"> c gray6",
", c #101010",
"< c #111111",
"1 c gray7",
"2 c #131313",
"3 c gray8",
"4 c #151515",
"5 c #161616",
"6 c gray9",
"7 c #181818",
"8 c #191919",
"9 c gray10",
"0 c #1B1B1B",
"q c gray11",
"w c #1D1D1D",
"e c #1E1E1E",
"r c gray12",
/* pixels */
"                                                                ",
"                                                                ",
"                                                                ",
"                                                                ",
"                                                                ",
"                                                                ",
"                                                                ",
"                                                                ",
"                                                                ",
"                                                                ",
"                                                                ",
"                                                                ",
"                                                                ",
"                                                                ",
"                         822;;;&&;&;23q                         ",
"                    3;&####&&&&&&&&&######&3                    ",
"                q;&##&;                 3;&##&;8                ",
"              2&#&2                          2&#&2              ",
"            ;.&2                                3&#;            ",
"          ;#&      8         8    q         8      &#;          ",
"        3&&     3&.;         ;8  3&         &.&3    8&&8        ",
"       2#3    ;#...8         &.##.&         3...#;    3#2       ",
"      &&    ;#.....          #....&          .....#2    &;      ",
"     #&   3#.......          #....#          .......#3   &#     ",
"    ;&   ;.........         q......          .........;   &;    ",
"   2&   &..........2        ;......;        2..........&   #2   ",
"   #8  &...........#q      3........3      8#...........;  3#   ",
"  ;;  2.............#2    2..........;    2#.............2  &;  ",
"  #8  #................##..............##................#  8#  ",
" 8#  2....................................................3  #8 ",
" ;&  &....................................................&  &; ",
" &;  #....................................................#  && ",
" &;  #....................................................#  && ",
" ;&  &....................................................&  &; ",
" 8#  2....................................................3  #8 ",
"  #q  #..................................................#  8#  ",
"  ;;  2.......&3 2&.....&22#........#22&.....&3 3&.......3  &;  ",
"   #q  &.....&     8&.#3    ;......;    8#.&8     &.....;  8#   ",
"   2&   &....3       ;3      &....&      3;       2....&   &2   ",
"    &&   &...8                #..#                2...&   &;    ",
"     #&   2..2                ;..2                2.#3   &#     ",
"      &&    &&                 ##                 &;    &&      ",
"       ;&3   8                 22                 q   3&;       ",
"        3&&                                         q&&3        ",
"          &#;                                     q;#&          ",
"            ;.&3                                3&.;            ",
"              2&#;3                          3;##;              ",
"                8;###&2                 82&###;                 ",
"                    2&#####&;;;;;;&;&&####&2                    ",
"                          22&;&##&;;22                          ",
"                                                                ",
"                                                                ",
"                                                                ",
"                                                                ",
"                                                                ",
"                                                                ",
"                                                                ",
"                                                                ",
"                                                                ",
"                                                                ",
"                                                                ",
"                                                                ",
"                                                                ",
"                                                                "
};
