/* XPM */
static char *f0bb75949ea94f558efd66dc16a9f8fcHaD9kqDJzGPbyO3D[] = {
/* columns rows colors chars-per-pixel */
"64 64 179 2 ",
"   c #010202",
".  c #080607",
"X  c #050807",
"o  c #040609",
"O  c #06090B",
"+  c #0A0B0D",
"@  c #0D100D",
"#  c #11120E",
"$  c #040D12",
"%  c #0D0E11",
"&  c #0E1213",
"*  c #0D1519",
"=  c #131414",
"-  c #161816",
";  c #191A16",
":  c #131619",
">  c #151A1A",
",  c #1A1C1B",
"<  c #17201F",
"1  c #1C211E",
"2  c #21221D",
"3  c #171F21",
"4  c #1B1E21",
"5  c #1D2322",
"6  c #1F2926",
"7  c #1F2729",
"8  c #1F282D",
"9  c #222524",
"0  c #232926",
"q  c #292B26",
"w  c #232629",
"e  c #252B2A",
"r  c #292D2B",
"t  c #27312E",
"y  c #2B322E",
"u  c #32332E",
"i  c #262D30",
"p  c #2A2E31",
"a  c #2C3332",
"s  c #2E3835",
"d  c #2D3539",
"f  c #2F3938",
"g  c #313534",
"h  c #323A36",
"j  c #3A3B36",
"k  c #323639",
"l  c #343C3B",
"z  c #393E3D",
"x  c #36413C",
"c  c #3A423E",
"v  c #42433D",
"b  c #363E41",
"n  c #393E41",
"m  c #374241",
"M  c #3C4443",
"N  c #3E4945",
"B  c #3C4449",
"V  c #3E4949",
"C  c #424645",
"Z  c #414A46",
"A  c #42464A",
"S  c #444C4B",
"D  c #4A4E4D",
"F  c #45514D",
"G  c #4B524F",
"H  c #454E51",
"J  c #494D51",
"K  c #465051",
"L  c #4C5353",
"P  c #4E5955",
"I  c #4D5558",
"U  c #4F585D",
"Y  c #515554",
"T  c #525A57",
"R  c #505559",
"E  c #545B5B",
"W  c #5A5E5E",
"Q  c #55615D",
"!  c #5A625F",
"~  c #575E61",
"^  c #5A5E62",
"/  c #566161",
"(  c #5B6363",
")  c #5E6966",
"_  c #5E666A",
"`  c #5E6A6A",
"'  c #616566",
"]  c #616A67",
"[  c #62666A",
"{  c #616B6C",
"}  c #606C6C",
"|  c #646D6C",
" . c #636B6B",
".. c #696F6F",
"X. c #6A6E6F",
"o. c #65716E",
"O. c #6A726F",
"+. c #676F72",
"@. c #696D71",
"#. c #677273",
"$. c #687072",
"%. c #6C7272",
"&. c #6B7473",
"*. c #6A7274",
"=. c #6B7473",
"-. c #6F7877",
";. c #6E7A76",
":. c #6F7478",
">. c #6D7979",
",. c #717777",
"<. c #737673",
"1. c #727876",
"2. c #72777B",
"3. c #70787A",
"4. c #737B7D",
"5. c #747D7C",
"6. c #737B7C",
"7. c #787C7F",
"8. c #75817D",
"9. c #7B817F",
"0. c #767D80",
"q. c #787D81",
"w. c #768281",
"e. c #798283",
"r. c #7B8483",
"t. c #7B8385",
"y. c #7A8484",
"u. c #7C8886",
"i. c #7D8589",
"p. c #7C8888",
"a. c #7F898C",
"s. c #818A87",
"d. c #82868A",
"f. c #818A89",
"g. c #828B8C",
"h. c #888C8F",
"j. c #87908F",
"k. c #868D91",
"l. c #869291",
"z. c #8C9594",
"x. c #8D9695",
"c. c #8A9595",
"v. c #8F9897",
"b. c #8D9995",
"n. c #8C9599",
"m. c #8F9B9B",
"M. c #8D9999",
"N. c #909B97",
"B. c #93979A",
"V. c #909998",
"C. c #959F9E",
"Z. c #929B9D",
"A. c #97A09F",
"S. c #97A29E",
"D. c #98A39F",
"F. c #969FA3",
"G. c #99A3A2",
"H. c #9AA5A4",
"J. c #9DA7A6",
"K. c #9DA2A6",
"L. c #9FA8A7",
"P. c #9DA6AB",
"I. c #A0ABA7",
"U. c #A2A6AA",
"Y. c #A1ABAA",
"T. c #A3ADAC",
"R. c #A1ACA8",
"E. c #A3ACB1",
"W. c #AAAFB3",
"Q. c #ADB7B6",
"!. c #ABB3B6",
"~. c #ACB5BA",
"^. c #B0B5B9",
"/. c #B3BABE",
"(. c #B2BBC0",
"). c #B9C2C7",
"_. c #BBC4C9",
"`. c #CBD3D6",
"'. c #CDD5D8",
/* pixels */
"o o O O O O + + + + + + + + % % + + + @ & & & & : : * * : > 3 5 5 5 4 : & : & + & % O o O % % + + + + + + + + O + + O + + + + O ",
"o O O O O + + + + + + + + + % % + @ @ & & & & & & - 3 5 5 5 6 7 w w 6 5 4 : : : & % % O + % + + + + + + + + + O + + + + + + + O ",
"O O O O O + + + + + + + + + % % & & & & & & = = : > 5 7 7 7 8 e d a k k i > : : & & % % % % % + + + + + + + + + + + + + + + + O ",
"O O O O + + + + + + + + + % % % = & & & & = > > 5 6 7 7 8 i l B L I R I A a 4 : : & & & & % % & % % % % % + + + + + + + + + + + ",
"O O O O + + + + + + + + % % & = = = & & - > 5 5 e e e e d M L / _ *.6.*.[ E z 5 > * & & & % & : & & & & % % + + + + + + + + + + ",
"O O O + + + + + + + + % & = = = = = & - > 5 e e e t a l M K E ( $.e.g.a.t.4.W l 7 5 4 4 > & % = = = = = = % + + + + + + % % + + ",
"O O O + + + + + + + % % = = = = = = > , 5 e a s s s l B K E _ { 5.f.z.b.z.f.X.I z g s a w > & & = = = & & & % + + + + + % % + + ",
"O O + + + + + + % % % = = = : : = - > 5 0 y f l f f l S E #.4.e.j.V.G.L.S.g.,.[ J S A N g 5 = = = = = = & & % % % + + % % % + + ",
"O O + + + + + + + & = & = , , > , , 5 e a l l l f V N H } #.p.H.G.J.G.Y.L.z.y.| / ) W T T M 0 5 > : = = - & & & & & & % % % + + ",
"+ + + + + + + + + = = = : , , > = > 5 e h z z l N V V K / >.c.m.C.H.R.Q.z./ E  .&.;.%.' X.W L S e 6 > > > & & + & & & & % % + + ",
"+ + + + + + + % % = = = : , , , > 5 e s x M B M m l V L L 4.Z.c.Z.D.I.R.&.t f W g.s.9.] O.! E G M d e 6 5 : & & & & & & = = % + ",
"+ + + % % % % % % = : : > , , , < 5 e a l c V S S L ` >.=.l.c.l.Z.S.N.j.E e a S 5.6.1.! [ ! ( L K B f t 6 > & & & & = & = = = % ",
"% % % % % % = = & = : > > , , 5 6 0 t a x F E _ o.>.e.c.m.m.} o.Z.b.g.8.E a f M &.O.&.] | ] ( L L S m s e > & & = = = = = = = = ",
"& & & = = = = = = = : , , , 9 w 0 e a l V P | 6.y.u.e.c.m.l.V N u.9.6.6.T e e x _ / ) O.| ] W S L V M l t 5 : & > : = = = = = = ",
"= = = = = = = = : : , 4 4 4 w p a h x V F E } >.g.p.a.g.>.w.B B  .&.o.) V 6 e f l l M | (  .T S S M l x l d e 5 > > : = = = = = ",
"= & = = = = = = , > , 5 9 5 r g E ! )  . .o.6.y.w.e.g.8.B E m M Q ;.o.G s t l a a y h | T ! C l M l f c S S z a , > : = = = = = ",
"= - - = & & = > , 5 0 0 5 5 g Z ! &.8.6.;.&.;.y.E Q 8.! S S V x F F S l y s y a g y a c S C z h l h f x S S M h 5 , > : > > : = ",
"- - > > > > , 5 a a y e 0 0 h S ) #.o.) Q Q ( &.P P | L S M M l N N S l y y y y y e t h z g y r g y y h c c l a 5 < > : : : : & ",
"& - - > > > , < a y e 0 5 0 a M F F V l h l M L G S L M Z M c M s l l f y y a s a t t y a r 0 e y e t y s h a y e 6 5 < < < > : ",
"& - - > > > > > < < < < < 5 0 t a f a t a a l M S M S V L S S S Z N x x l s h s g a y y y e r y e e t y y y a y a e e 6 6 5 5 > ",
"> > > , 1 5 5 1 > > > , , 9 0 0 5 e t t f f l c Z N S S T L Y C T G c M N l l a h g a y r 0 e y e r r y r r y y a y e 0 0 6 5 5 ",
"= = - > , 5 5 5 1 , , > > 5 0 0 5 0 6 6 t t a h M c S S L L Y 0 e e < h Z c Z l l h g y r 0 e r 0 e r r e e e r a a a a e 0 e 0 ",
"& & & = > , , , , , , - - , 9 9 0 t e e y a a l z l C C D W W +   X + h S z Z z z h g a y y r r 0 e e e e 0 0 0 e r a a r e e 0 ",
"= = & & = > > - & > , , , 1 5 1 > 6 6 0 t y a h M z C S Y X.O.O   = < S Y h z y g a y r y y r r 0 e e e e e 0 0 5 0 e 0 e 6 5 5 ",
"= = : : - - - - - ; > > > > , , < 0 0 5 y a r g g C L Y Y D q   + > 0 D 5.E G M a g e 5 0 0 5 0 0 0 9 0 0 0 9 5 5 5 5 5 , , > > ",
"= = = : : : : : : : - - - ; > , , 5 < < e e 0 g g a q , + X   X     o > z h E [ c M h e e 0 5 5 9 9 9 9 9 9 5 1 , , , > > > > > ",
"= = = = : : : : = : : : : : ; > > , , 1 0 0 0 g q =               = = % %     o 0 a e 0 e e w 0 9 9 1 9 9 1 < , > > > > > > : : ",
"= = = : : : : : : : : : : : - > > > , 9 0 0 q g &     X + X             o o + = a l l r e 0 w 0 9 9 1 1 1 1 , > > > > > > > : : ",
"= = : : - - - ; > > > > > > , , , > 1 0 0 q r r               X +           X % r z z a r 0 0 0 9 1 1 1 1 1 , , , , > > : = = = ",
": : : - - - > ; , , , , , , , 1 , > 1 9 9 r r ,                       o   X     > a h a e 0 e 0 9 2 2 9 9 9 5 5 > > > : = = & & ",
": : : - > - ; ; > , , , > > , , > > 5 1 5 r q +         X +         o     w , O , k M g r 0 6 9 q q 0 0 0 9 5 , > - : : = = = = ",
"= = : : - - - - : : - : : : : > > > 5 , , a q X                         o C r     , i e 0 0 0 e g u r r 0 1 > : - : : : : = = = ",
"= : > , > - : : > : : ; > - : - > , , 5 0 r >                     + + O X : 9   o   0 a a e e 5 1 , , , , , > > , > : : : = = = ",
"= : - - : = : : - : : , , , > > , - - 9 r 0 &                             & g 9 o   0 g a 0 e 5 1 , , , , , > - : = = = = = = = ",
"= : : = = = = : : = - , 5 , , , , - > 0 0 - X                             O c z o   r h a 0 0 5 , , , , , > > : : : = = = = = = ",
"= = = = = = : - : = : , , , > , > < 0 9 =                           .       y y     0 y a 0 0 5 , , , > > > - : : : = = = = = = ",
"= = = : - - - - - : = : > - - > , 0 0 =                                     = > o X 0 0 e 5 < , , > > > > > - : @ = = @ # : : = ",
"= = = : - > - : > = = = : : - > 1 1 =                             X         O > > - r 9 e 5 , , > > - > > > - : > , , : = : : = ",
"> - : : : - : = : = = : > > > , > & o                           O 9       X   5 0 9 r , 0 9 , , : : = - ; ; ; - 2 9 9 ; = = = # ",
"1 , : = = = = = : = = > , , , , +                               + g   o   O   5 0 1 5 & 1 , - - = = = = ; ; ; - @ - ; # # : ; = ",
"= = = = = = = = - : = 9 0 1 - +                 X         o     : w >       o 5 , , , - : = = = , q q ; # , , = = = # @ # : = # ",
"@ & & = = = = = @ = = , > + X                   X         X   o > 4 &       o 1 5 , - = = - ; ; q q 9 ; = = = = # = ; , , , : + ",
"& = = = = = = = = = : = O                                     & 5 > : & O   + , & = - , 1 , = @ , ; # = ; = = = ; ; = # = = # + ",
"= = = = = = : : , : = X       X X X                 X         > > : > & o   o O , > ; - - = = = + @ # - ; ; = # ; = # + # # # # ",
"= = = = : > , , , + +     X   X           X X   X             & 4 4 4 &     o   5 2 2 , ; = - ; ; 2 9 , - ; ; # ; ; ; , 2 , ; = ",
"- : : , 5 9 1 , O   +     O                           o       + w e w > O     O 9 1 2 2 2 9 q y 2 q q , , 9 y y q 9 2 2 2 ; = # ",
"9 1 1 0 r 0 > +     - X   X   X . . X         X     r r     - a a d a a 5     O z g u y u j v v , , , 2 2 q u j u 9 , ; = # # # ",
"r r r a g 0 &     O 0 &   o   = + + O X   O , r   , ' W O   a ( H I I ~ L :   > M D ! <.<.! j ; 2 ; ; 2 9 , ; , - = = ; > : = = ",
"5 s k i 4 o o 5 w k : o     : 5 i 0 % = C ' A > n @.U.E   o ^ k.>.a.a.n.g.5   3 { 4.0.[ / i > 5 5 > > 5 e e e w e e e e 9 > = % ",
"l a i i i w i A M o % 5 l l [ n 0 % o > w > 5 C B.B.^ 7     _ n.g.E.(.E.F.* o   H _ _ B d a a 8 7 7 e i i a p p w e e e w 4 4 4 ",
"> 4 l R E E { 4._ R *.:.@.d e o O     + & o % e a k o   O   B d.F.E.(.).P.* $ o   H 4.U e d B B I M b H L A B S l l k e 4 : : : ",
"5 > 4 4 * e L [ [ [ B w : O   o   o o   O % o   O       o O J /./._.).~._ $ o $ d t.Z.k.0.t.{ E E E H M H ( E B B n l i 4 3 4 5 ",
"O % > > : 4 4 O > , 4 : o         o           o     % O o o k t./.`.'.4.* o   $ S g.g.a.a.0./ 4.*./ I J L L L I S A n a w 4 9 w ",
": 4 5 > > 0 e 5 e i Y J E >   o         o     o O O         @.C.K.n.F.d o O o * ~ t.i.V.!.V.+.t.f.:.[ ^ I l n L n k i 5 : % % % ",
"& > > & O + > i k n X.@.4.k o           X O               % [ g.:.S S : o     4 R 0.U.^.W.i.*.q.R | E e > e r : % O o o o O + O ",
"O O O : 0 3 > p k n d.7.:                     O     +   +     % 4 5 > &   o $ B A n ~ @.0.2.4.^ k 5 & & % o   o o       o o     ",
"o o O % : 5 w r : 9 k z r %                         X     % 9 g : a e %     & l k k 4 B [ ^ B 5 O & & O o O O o     o o o o o   ",
"o o O % : 4 9 w o o o +       o                           = 5 e 5 i >         = & o l h.^ > a O o     o O o               o     ",
"X o X O % = : : o       o     o                 X       + > 4 4 o %     o + + : a : = W ^   :   O O o     o o                   ",
"        X o O O X     + +                                 O O o   o       o o %   4 O 3 Y % % 4 o , 5 %     + + o X X X         ",
"                                                                  o o o       O O : w : 3   o     = e 0 =       o X o o X X o   ",
"                  X O o       X                   X o X   X X           o o O O +   %   o % 4 O o o = e 4     o       X o O O O ",
"                    o o                                         O     o           o = + o   + O %     & = o   o         X X o o ",
"                                                          o           o     o + o O       o 4 O   o O     + X                   "
};
