/* XPM */
static char *_81fd498decc4ad7b9c59951662b513b7tkajRgWBo8j5o6u[] = {
/* columns rows colors chars-per-pixel */
"64 64 147 2 ",
"   c None",
".  c #030304",
"X  c #080807",
"o  c #060609",
"O  c #08070B",
"+  c #07080B",
"@  c #0A0A0C",
"#  c #0E100F",
"$  c #14130F",
"%  c #0D0E11",
"&  c #100F14",
"*  c #0F1012",
"=  c #121315",
"-  c #1A1613",
";  c #161817",
":  c #1B1A15",
">  c #15151A",
",  c #18171D",
"<  c #17181B",
"1  c #1B1B1C",
"2  c #211D16",
"3  c #211F1B",
"4  c #281E1A",
"5  c #1F201F",
"6  c #232017",
"7  c #25221B",
"8  c #2F221D",
"9  c #2E291F",
"0  c #332D1F",
"q  c #3B331E",
"w  c #1D1E21",
"e  c #211F22",
"r  c #1F2121",
"t  c #232324",
"y  c #292623",
"u  c #272926",
"i  c #292926",
"p  c #252628",
"a  c #282628",
"s  c #262929",
"d  c #2B2C2B",
"f  c #352E24",
"g  c #3F2D26",
"h  c #332F2C",
"j  c #392D28",
"k  c #2F302D",
"l  c #353124",
"z  c #393222",
"x  c #32322E",
"c  c #3C3629",
"v  c #3E392A",
"b  c #2D2E31",
"n  c #2E3030",
"m  c #343432",
"M  c #363937",
"N  c #3A3B36",
"B  c #3C3D3A",
"V  c #443A26",
"C  c #44342E",
"Z  c #473D2D",
"A  c #493E2A",
"S  c #443C30",
"D  c #3F403A",
"F  c #4C422D",
"G  c #53442F",
"H  c #5A4D2F",
"J  c #414037",
"K  c #4C4435",
"L  c #43433C",
"P  c #48463B",
"I  c #47483F",
"U  c #544833",
"Y  c #584B34",
"T  c #56513E",
"R  c #5D513A",
"E  c #614334",
"W  c #67573B",
"Q  c #65583C",
"!  c #6C5A3B",
"~  c #444542",
"^  c #4A4A41",
"/  c #494942",
"(  c #4A4943",
")  c #4B4B43",
"_  c #4A4A42",
"`  c #4C4C43",
"'  c #4E4E43",
"]  c #484844",
"[  c #4B4B44",
"{  c #4C4C44",
"}  c #4E4E44",
"|  c #4F4F45",
" . c #4D4D46",
".. c #4D4C47",
"X. c #4B4C44",
"o. c #4C4D4C",
"O. c #4F4E4D",
"+. c #494A4E",
"@. c #504A45",
"#. c #504F46",
"$. c #504F45",
"%. c #505147",
"&. c #515048",
"*. c #525249",
"=. c #51524B",
"-. c #52524A",
";. c #545449",
":. c #565549",
">. c #57564C",
",. c #55554D",
"<. c #58574C",
"1. c #58574E",
"2. c #58574E",
"3. c #57584D",
"4. c #59594E",
"5. c #5A594E",
"6. c #595A4F",
"7. c #4C4D51",
"8. c #4F5156",
"9. c #505153",
"0. c #5F5D51",
"q. c #5D5D55",
"w. c #5B5A52",
"e. c #53555A",
"r. c #56585C",
"t. c #5A5A59",
"y. c #625C44",
"u. c #755643",
"i. c #7A5B4A",
"p. c #615F53",
"a. c #6C654A",
"s. c #626054",
"d. c #60605E",
"f. c #686659",
"g. c #575B61",
"h. c #5B5C61",
"j. c #67686B",
"k. c gray42",
"l. c #6C6F6F",
"z. c #747574",
"x. c #826E44",
"c. c #877047",
"v. c #956A52",
"b. c #91725B",
"n. c #969692",
"m. c #9D9D9A",
"M. c #ABABA8",
/* pixels */
"                                                                                                                                ",
"                                                                                                                                ",
"                                                                                                                                ",
"                                                                                                                                ",
"                                                                                                                                ",
"                                                          t       N                                                             ",
"                                                          1       m                                                             ",
"                                                        t 1 t p t d ~                                                           ",
"                                                        t p d 1 < d l.                                                          ",
"                                                        w t a e = t z.                                                          ",
"                                                        p h t 1 = ; o.                                                          ",
"                                                        C b.i.C 8 j @.                                                          ",
"                                                        3 u.v.E g j /                                                           ",
"                                                      w t y j 4 - = m t.                                                        ",
"                                                  t w 1 d m p < % % p p t p                                                     ",
"                                          k d p p p t e t d 1 1 > = = < 1 1 1 1 t d                                             ",
"                                      L ( ` L N L N k h x i 7 1 y i d d d N m d N B N m                                         ",
"                                    ( &.5.5.....L d y 7 3 1 = @ = : : 1 y x N N x m x x d.                                      ",
"                                    L N N B ( ;.<.<.>.( N N i t L B m x N m d x d 1 t t /                                       ",
"                                    B L ..x d L 5.q.&.] B m i m ../ D N M d y d 1 ; t t m k.                                    ",
"                                  ( %.3.L 1 1 m N L B / ] ( N L %.m d d i t 1 1 @ 1 s t o.M.                                    ",
"                                  ` ..N t * 1 D ` p.s.f.0.( m L &.D x i p p 3 1 @ = s t m n.                                    ",
"                                ....L p = o d N L ;.5.#.&.( N L ..N d p p t t ; @ @ r p p ] m.                                  ",
"                            t / &.L d ; o . 1 m B I L L w.5.D D ( d t t 5 1 1 = X . % 1 t y B ,.b                               ",
"                          t 1 x M p = X . . O p N D D N B B m m N d t t r 1 = X . . . = 1 t d p 1 7.                            ",
"                        p d d = = ; % . . o o o d L L L ` w.L / X.x t t t 1 @ . . . . % 1 t p t 1 p e.                          ",
"                      d d m t @ o @ o . . @ o . 5 ( #.L ` <.B M N d t 1 t 1 X . . . . o < w ; w 1 = > 7.                        ",
"                    m m d p ; X o . . . . % 7 Z c y.a.T J P c l c d y f l d : : X . . o % % % > 1 1 = d j.                      ",
"                    d m d d = @ . . . . o @ z Q Y x.c.H f R F R z c 6 A V c 6 9 $ . . . @ @ @ 1 b t < < r.                      ",
"                    t p p 1 * X . . . . + @ 2 U G ! W q 7 K F R z v : z 0 9 - 2 @ . . . + % @ = p d < 1 g.                      ",
"                    1 1 1 = . . . . . . @ @ o $ : 7 3 $ - S S c 0 7 $ = = @ X X . . . . @ % @ o = r ; < 8.                      ",
"                    1 t d 1 . . . . . . @ @ . % < < > * % < < % % @ @ @ @ + X . . . . . @ % @ o @ < ; t 7.                      ",
"                    d t t p @ . . . o o % + . 1 w < < < < < < > % % % % % @ @ @ . . . . X % X o & < < t +.                      ",
"                  M d ;   1 = . . . @ @ % + X N ..M t < = < < = % @ @ % ; ; 1 t @ . . . X % X o > =   t ~ h.                    ",
"                  ~ d 1   o . . . o & = % X 1 ..5.D m t < % % @ o @ < u m d t d 1 . . . o % @ o O X   d 9.j.                    ",
"                  p 1     . . . . @ < < * @ M ;...x u r 1 = o . % t m B B d t t d X . . o % + o o X     r s                     ",
"                  1       . . . . @ < < % ; ( >.( k p r 1 = X . < m D ] ~ m u t d ; . . o @ o o o o       s                     ",
"                          . . . o % < < % t ` ..B k s r 1 = . . * m B / ] N d t d p . . . o o o o o                             ",
"                          . . . o % < < % u L B m d t 1 < % . . o p M B / L d t s d . . . o . . o o                             ",
"                        @ . . . o & < < % p L N x u t ; # . . . . = d M B B d r t t . . . . . . . . @                           ",
"                        X . . . o = , , % t B m d d 1 = X . . . . . 1 x M k t r w 1 . . . . . . . . @                           ",
"                        X . . . o = , , % 1 x d u p 1 @ . . . . . . = i m s 1 w r = . . . . o . . . X                           ",
"                        X . . . o > , , @ = d p p 5 ; X . . . . . . X p n p 1 1 1 @ . . . . X o o . o                           ",
"                        X . . . o > , , @ X p d y 1 = X . . . . . . o ; p w 1 1 = o . . . . @ . . o X                           ",
"                        . . . o @ < , < X * m m t = @ . . . . . . . o = 1 1 p 1 < @ . . . o % . . . o                           ",
"                        . . . . @ < , < O ; N N 1 * @ . . . . . o . o * t s d t 1 @ . . . . % o . . o                           ",
"                      X . . . . X < , > o 1 m u = % @ . . . . . . . o @ < s s r 1 @ . . . . @ o . . o                           ",
"                      X . . . . X > < > @ w t ; % @ X . . . . . . . . @ = w t 1 = = % . . . o o . . o @                         ",
"                      X . . . . @ < < > = < , = % X o . . . . . . . . @ > 1 w > % % < o . . . . . . o @                         ",
"                      X . . . . @ < < > > < w = % @ . . . . . . . . . @ % 1 p < % % = % . . . . . . o X                         ",
"                      . . . . o @ < < = = < 1 = @ X . . . . . . . . o @ % ; w < % % % % . . . . . o o o                         ",
"                      . . . . o @ > > % = < < * @ X . . . . . . . . . @ % < 1 > % @ % @ . . . . . . o o                         ",
"                    X . . . . o @ = % % = > > % + o . . . . . . . . . o * = > * % @ @ o . . . X . . . o @                       ",
"                    X . . . . o @ % @ @ = > = % @ . . . . . . . . . . o X % > % % % @ o . . . X o . . o X                       ",
"                    o . . . . . X @ o o % > > % X . . . . . . . . . . . o % = > % % @ . . . . X @ . . o X                       ",
"                    . . . . . . o O o . % < < % o . . . . . . . . . . . o @ > 1 = % @ . . . . O % o o o o %                     ",
"                    . . . . . o o . . . = w w % o . . . . . . . . . . . o @ = t ; * % . . . . O % o o o o @                     ",
"                    . . . . o o o . . o 1 t ; @ . . . . . . . . . . . . . . = w ; % = o . . . o @ o . . . X                     ",
"                  @ . . . . . . . . . @ 1 1 @ X . . . . . . . . . . . . . . X ; 1 = @ X . . . . . . . . . o                     ",
"                  X . . . . . . . . . % ; @ X o . . . . . . . . . . . . . . X = 1 = @ % @ . . . . . . . . o                     ",
"                  . . . . . . . . . = = @ X . . . o . . . . . X X @ X . . . @ @ * = > = = ; . . . . . . . . @                   ",
"                                  @ = = @ o . .                               @ % < < % % <                                     ",
"                                    o o . .                                       @ O o o                                       ",
"                                                                                                                                "
};
