/* XPM */
static char *_d696117fbe64376878424696f8365cf8bIoPpDfMkMQRB78[] = {
/* columns rows colors chars-per-pixel */
"30 64 176 2 ",
"   c None",
".  c #18171D",
"X  c #1A1928",
"o  c #1D1B27",
"O  c #1F1D32",
"+  c #201E33",
"@  c #1F2023",
"#  c #232426",
"$  c #272728",
"%  c #2C2C2C",
"&  c #232136",
"*  c #2D2E32",
"=  c #252B39",
"-  c #2F3031",
";  c #2C313C",
":  c #323333",
">  c #3D3D3E",
",  c #222D46",
"<  c #2F3448",
"1  c #333544",
"2  c #293755",
"3  c #2E3C5C",
"4  c #2A3856",
"5  c #2F3F61",
"6  c #363E60",
"7  c #3A4354",
"8  c #344367",
"9  c #36496C",
"0  c #3C4F79",
"q  c #3C4E75",
"w  c #3D517B",
"e  c #424243",
"r  c #474748",
"t  c #4B4B4B",
"y  c #494856",
"u  c #5B5B5D",
"i  c #424E69",
"p  c #41547E",
"a  c #505A70",
"s  c #6F6E79",
"d  c #7C7C7C",
"f  c #767676",
"g  c #365E82",
"h  c #3C5E87",
"j  c #3A648A",
"k  c #3F6B95",
"l  c #415685",
"z  c #465C8B",
"x  c #495F8F",
"c  c #455987",
"v  c #416589",
"b  c #59748C",
"n  c #4A6193",
"m  c #4D669C",
"M  c #456A97",
"N  c #50679C",
"B  c #546A9B",
"V  c #42719B",
"C  c #5B719F",
"Z  c #7F7F88",
"A  c #65769B",
"S  c #476EA0",
"D  c #4F69A1",
"F  c #536CA3",
"G  c #546FAA",
"H  c #4476A2",
"J  c #4873A4",
"K  c #4679A7",
"L  c #4A7BAC",
"P  c #4A74A8",
"I  c #577FA4",
"U  c #5573AD",
"Y  c #5970AA",
"T  c #4F7FB3",
"R  c #5773B2",
"E  c #5A76B1",
"W  c #5C79B4",
"Q  c #5F7BBB",
"!  c #517EB1",
"~  c #607DBC",
"^  c #5F7DC0",
"/  c #4F81AD",
"(  c #5F83A5",
")  c #5D88AF",
"_  c #5A84AC",
"`  c #4B82B3",
"'  c #4F85BA",
"]  c #548ABD",
"[  c #5786BB",
"{  c #6284A4",
"}  c #7B95AD",
"|  c #658AB8",
" . c #758BBB",
".. c #6091BF",
"X. c #6A93B8",
"o. c #779ABB",
"O. c #538EC4",
"+. c #588AC4",
"@. c #5491C7",
"#. c #5D93C4",
"$. c #5594CB",
"%. c #5797D0",
"&. c #5897D0",
"*. c #5A9AD4",
"=. c #5B9EDA",
"-. c #6482C5",
";. c #6887CC",
":. c #6989CE",
">. c #6685C9",
",. c #758DC2",
"<. c #6295C5",
"1. c #6895C0",
"2. c #639ACC",
"3. c #689AC8",
"4. c #6C8DD5",
"5. c #659ED3",
"6. c #6F90D9",
"7. c #7092DD",
"8. c #5CA1DD",
"9. c #79A5CC",
"0. c #65A0D7",
"q. c #67A5DD",
"w. c #7FADD6",
"e. c #7295E1",
"r. c #7699E6",
"t. c #769AE9",
"y. c #799EEE",
"u. c #7A9FF0",
"i. c #5FA5E3",
"p. c #61A6E5",
"a. c #62ABEB",
"s. c #65AEF0",
"d. c #7DA2F4",
"f. c #7FA5FA",
"g. c #67B1F5",
"h. c #68B2F4",
"j. c #69B6FA",
"k. c #6BB9FF",
"l. c #66B3F8",
"z. c #8A8B8D",
"x. c #868686",
"c. c #949494",
"v. c #989AA0",
"b. c #8B9BBF",
"n. c #9CA5B8",
"m. c #A9A9A9",
"M. c #A4B0BA",
"N. c #B5B5B5",
"B. c #BABABB",
"V. c #93A8C8",
"C. c #80ABD2",
"Z. c #92A9DE",
"A. c #A6B4C1",
"S. c #B3BFCA",
"D. c #B5BAC2",
"F. c #B0BCD6",
"G. c #81A3ED",
"H. c #80A6FB",
"J. c #82A9FF",
"K. c #81A3F0",
"L. c #C5C5C4",
"P. c #C2C5CA",
"I. c #C7C8C9",
"U. c #D0D0CF",
"Y. c #CFCFD0",
"T. c #D7D7D7",
"R. c #D7D7D8",
"E. c #DCDCDD",
"W. c #D4DAE7",
"Q. c #DCE0E9",
"!. c #E4E5E5",
"~. c gray91",
"^. c #F2F1EF",
"/. c #F5F4F4",
"(. c #F8F7F6",
"). c #FFFEFE",
/* pixels */
"                        q w                                 ",
"                        E r.N                               ",
"                        ~ J.d.E                             ",
"                        -.J.J.H.Q                           ",
"                        :.J.J.J.H.W                         ",
"                        6.J.J.J.J.d.F                       ",
"                        e.J.J.J.J.J.r.                      ",
"                  z p   r.J.J.J.J.J.J.-.                    ",
"                  4.~ 3 y.J.J.J.J.J.J.u.                    ",
"                F f.t.x f.J.J.J.J.J.J.J.~                   ",
"                t.J.J.d.J.J.J.H.f.f.J.J.e.                  ",
"              p u.J.J.J.K.G.d.| b.V. .W ,.a                 ",
"            . & 6 Y 7.Z.W.Q.F.n.(./.I.v.!.E.f               ",
"            X & & & < P.).).^.L.).~.L.c.B.!.m.              ",
"            X & + O 1 E.).)./.c.N.B.u # * u                 ",
"            o y s Z v./.)./.z.t t t r e : * e e > :         ",
"              R.).).).).).R.u t r e e e e e r e e e r e :   ",
"              L.).).).).).(.!.R.Y.L.B.B.d $   % #       * . ",
"            H ( V.S.!.).).).).).).).).!.d                   ",
"          8.k.j.l.a.3.S.(.).).).).).E.x.                    ",
"        k l.k.k.l.=.*.*.A.).).(.!.M.                        ",
"        k g.k.k.$.=.8.$.*.A.U.L.} *.                        ",
"          =.k.s.$.k.k.g.8.] D.^.9.=.                        ",
"            i.&.a.k.k.k.l.a.X.L.) g                         ",
"              L j.k.a.l.k.k.s.b v j                         ",
"              O.k.k.O.g.k.k.h.{ @.V                         ",
"              =.k.j.@.l.k.k.h.( o.I                         ",
"              a.k.k.$.l.k.k.k.| o.{                         ",
"            k l.k.k.$.g.k.k.k.1.5./                         ",
"            ` k.k.k.$.g.k.k.k.1.q.O.V                       ",
"            $.k.k.k.$.s.k.k.k.<.0.$.H                       ",
"    z       8.k.k.k.$.a.k.k.k...2.*.L                       ",
"    G F 8   a.k.k.k.$.a.k.k.k.#.2.=.`                       ",
"p z 2 4.R h g.k.k.k.%.a.k.k.k.<.2.=.]                       ",
"0 R Q l -.[ l.k.k.k.*.p.k.k.k.<.5.8.O.                      ",
"  0 ^ 4.~ L k.k.k.k.*.8.k.k.k.<.2.8.$.                      ",
"l n 3 -.u.[ k.k.k.k.=.*.k.g.g.<.<.O.$.g                     ",
"  D -.x c T k.k.k.k.i.$.p.' ] <.I v $.k                     ",
"    Q d.E K k.k.k.k.a.J ! ] #.#._ O.&.K                     ",
"      N 7.+.k.k.k.k.g.L p.k.k.2.2.a.&.`                     ",
"          L k.k.k.k.l.$.k.k.k.2.5.a.@.K                     ",
"          j a.k.k.k.8.%.k.k.k.<.5.a.k                       ",
"            k ' O.' M X.w.w.C.} b j h                       ",
"          9 M S P J M P././.!.D.A m E p                     ",
"            Q W U U n z.N.m.u C 7.f.J.;.                    ",
"          x f.J.J.J.r.      % B d.d.4.m 8                   ",
"          F f.H.J.d.>.l     % i t.H.:.                      ",
"          l D 7.e.:.= ,     * ; 4.U m                       ",
"          5 3 Q z z @       < 1 m 9 w                       ",
"              n 2 9 #       @ 7 w 4                         ",
"              ,   = #         *                             ",
"                  % %         :                             ",
"                  %           :                             ",
"                  -           :                             ",
"                  %           :                             ",
"                  :           :                             ",
"                  %           %                             ",
"                  :           %                             ",
"                  -           %                             ",
"                  :           %                             ",
"                  :           -                             ",
"                  :           %                             ",
"                  :           :                             ",
"                  :           -                             "
};
